<?xml version="1.0" encoding="utf-8"?>
<!-- Generator: Adobe Illustrator 24.2.3, SVG Export Plug-In . SVG Version: 6.00 Build 0)  -->
<svg version="1.1" id="Layer_1" xmlns="http://www.w3.org/2000/svg" xmlns:xlink="http://www.w3.org/1999/xlink" x="0px" y="0px"
	 viewBox="0 0 597 294" style="enable-background:new 0 0 597 294;" xml:space="preserve">
<style type="text/css">
	.st0{fill:#FFFFFF;}
</style>
<g id="Layer_2_1_">
	<g id="Layer_1-2">
		<rect x="28.3" y="0.2" class="st0" width="52.2" height="248"/>
		<polygon class="st0" points="187.1,91.6 154,124.4 94.8,65.7 94.8,0.4 186.5,91.1 		"/>
		<polygon class="st0" points="259.4,160.6 224.9,194.8 186.9,157.1 220,124.2 220.3,124.4 220.3,124.4 		"/>
		<polygon class="st0" points="259.4,88.3 220.3,124.4 220.3,124.4 187.1,157.3 94.8,248.4 94.8,183.2 154,124.4 186.9,157.1 
			220,124.2 187.1,91.6 187.4,91.3 224.9,54.1 		"/>
		<polygon class="st0" points="220.3,123.9 220,124.2 187.1,91.6 154,124.4 153.5,123.9 186.9,90.8 		"/>
		<path class="st0" d="M466.5,248.2l-66.2-140.1l-51-107.9L232,248.4h234.6L466.5,248.2z M400.6,113.4L465,246h-25.2l-39.2-80.7
			L361.5,246h-25.2L400.6,113.4z"/>
		<path class="st0" d="M451.4,0l-51.1,108.1l-66.2,140.1h234.6L451.4,0z M439.8,246l-39.2-80.7L361.5,246h-25.2l64.4-132.6L465,246
			H439.8z"/>
		<rect y="267" class="st0" width="597" height="27"/>
	</g>
</g>
</svg>
